<svg width="434" height="337" viewBox="0 0 434 337" fill="none" xmlns="http://www.w3.org/2000/svg">
<path d="M99.9325 233.224L133.534 179.823L58.282 131.465L19.4198 193.226L81.6629 233.224H99.9325Z" fill="#F0F0F0"/>
<path d="M147.549 249.882H64.3163V232.951H147.549V249.882ZM65.3972 248.79H146.468V234.043H65.3972V248.79Z" fill="#3F3D56"/>
<path d="M137.28 246.878C140.265 246.878 142.685 244.433 142.685 241.417C142.685 238.4 140.265 235.955 137.28 235.955C134.295 235.955 131.875 238.4 131.875 241.417C131.875 244.433 134.295 246.878 137.28 246.878Z" fill="#DBADC6"/>
<path d="M122.147 246.878C125.132 246.878 127.552 244.433 127.552 241.417C127.552 238.4 125.132 235.955 122.147 235.955C119.162 235.955 116.742 238.4 116.742 241.417C116.742 244.433 119.162 246.878 122.147 246.878Z" fill="#DBADC6"/>
<path d="M107.014 246.878C109.999 246.878 112.418 244.433 112.418 241.417C112.418 238.4 109.999 235.955 107.014 235.955C104.029 235.955 101.609 238.4 101.609 241.417C101.609 244.433 104.029 246.878 107.014 246.878Z" fill="#DBADC6"/>
<path d="M91.8804 246.878C94.8654 246.878 97.2852 244.433 97.2852 241.417C97.2852 238.4 94.8654 235.955 91.8804 235.955C88.8955 235.955 86.4757 238.4 86.4757 241.417C86.4757 244.433 88.8955 246.878 91.8804 246.878Z" fill="#DBADC6"/>
<path d="M76.7473 246.878C79.7322 246.878 82.152 244.433 82.152 241.417C82.152 238.4 79.7322 235.955 76.7473 235.955C73.7623 235.955 71.3425 238.4 71.3425 241.417C71.3425 244.433 73.7623 246.878 76.7473 246.878Z" fill="#DBADC6"/>
<path d="M246.456 61.7196V20.2091H266.994V0H166.466V101.592H252.401V91.6588C252.401 89.8072 252.762 87.9737 253.463 86.2631C254.164 84.5524 255.192 82.9981 256.488 81.6888C257.783 80.3796 259.321 79.341 261.014 78.6324C262.707 77.9239 264.521 77.5592 266.353 77.5592H266.994V61.7196H246.456Z" fill="#F0F0F0"/>
<path d="M357.793 262.172H290.775V276.373H357.793V262.172Z" fill="#DBADC6"/>
<path d="M372.386 192.259H274.02V205.368H372.386V192.259Z" fill="#F0F0F0"/>
<path d="M420.488 335.908H0V337H420.488V335.908Z" fill="#3F3D56"/>
<path d="M389.241 337H266.353C262.511 336.996 258.827 335.451 256.11 332.705C253.393 329.96 251.865 326.237 251.86 322.354V91.6588C251.865 87.7758 253.393 84.0532 256.11 81.3075C258.827 78.5618 262.511 77.0174 266.353 77.013H389.241C393.083 77.0174 396.767 78.5618 399.484 81.3075C402.201 84.0532 403.729 87.7758 403.733 91.6588V322.354C403.729 326.237 402.201 329.96 399.484 332.705C396.767 335.451 393.083 336.996 389.241 337V337ZM266.353 78.1054C262.797 78.1094 259.388 79.5387 256.874 82.0796C254.36 84.6205 252.945 88.0654 252.941 91.6588V322.354C252.945 325.948 254.36 329.393 256.874 331.933C259.388 334.474 262.797 335.904 266.353 335.908H389.241C392.797 335.904 396.206 334.474 398.72 331.933C401.234 329.393 402.648 325.948 402.653 322.354V91.6588C402.648 88.0654 401.234 84.6205 398.72 82.0796C396.206 79.5387 392.797 78.1094 389.241 78.1054H266.353Z" fill="#3F3D56"/>
<path d="M313.204 87.9368C312.563 87.9368 311.936 87.7446 311.403 87.3845C310.869 87.0244 310.454 86.5126 310.208 85.9138C309.963 85.3149 309.899 84.656 310.024 84.0203C310.149 83.3846 310.458 82.8007 310.911 82.3423C311.365 81.884 311.943 81.5719 312.572 81.4455C313.201 81.319 313.853 81.3839 314.445 81.632C315.038 81.88 315.544 82.3 315.901 82.8389C316.257 83.3779 316.447 84.0115 316.447 84.6596C316.446 85.5285 316.104 86.3615 315.496 86.9759C314.888 87.5903 314.064 87.9358 313.204 87.9368V87.9368ZM313.204 82.4749C312.777 82.4749 312.359 82.603 312.003 82.8431C311.648 83.0831 311.371 83.4244 311.207 83.8236C311.043 84.2228 311 84.6621 311.084 85.0859C311.167 85.5097 311.373 85.899 311.676 86.2045C311.978 86.5101 312.363 86.7181 312.783 86.8024C313.202 86.8867 313.637 86.8435 314.032 86.6781C314.427 86.5127 314.764 86.2327 315.002 85.8734C315.239 85.5142 315.366 85.0917 315.366 84.6596C315.366 84.0804 315.138 83.525 314.732 83.1155C314.327 82.7059 313.777 82.4755 313.204 82.4749V82.4749Z" fill="#3F3D56"/>
<path d="M345.092 84.1134H321.311V85.2058H345.092V84.1134Z" fill="#3F3D56"/>
<path d="M394.005 92.8525V136.548C382.538 136.547 371.54 131.944 363.432 123.749C355.323 115.555 350.768 104.441 350.767 92.8525H394.005Z" fill="#DBADC6"/>
<path d="M394.545 322.253H261.049V92.3063H394.545V322.253ZM262.13 321.16H393.465V93.3987H262.13V321.16Z" fill="#3F3D56"/>
<path opacity="0.1" d="M362.658 133.817C370.717 133.817 377.25 127.214 377.25 119.07C377.25 110.925 370.717 104.323 362.658 104.323C354.598 104.323 348.065 110.925 348.065 119.07C348.065 127.214 354.598 133.817 362.658 133.817Z" fill="black"/>
<path d="M360.496 135.455C368.555 135.455 375.088 128.853 375.088 120.708C375.088 112.564 368.555 105.961 360.496 105.961C352.436 105.961 345.903 112.564 345.903 120.708C345.903 128.853 352.436 135.455 360.496 135.455Z" fill="#DBADC6"/>
<path d="M287.532 101.592H266.994V109.238H287.532V101.592Z" fill="#3F3D56"/>
<path d="M298.882 174.235H278.344V181.882H298.882V174.235Z" fill="#3F3D56"/>
<path d="M377.791 202.637H278.344V188.436H377.791V202.637ZM279.425 201.545H376.71V189.528H279.425V201.545Z" fill="#3F3D56"/>
<path d="M372.386 233.77H274.02V246.878H372.386V233.77Z" fill="#F0F0F0"/>
<path d="M298.882 215.746H278.344V223.392H298.882V215.746Z" fill="#3F3D56"/>
<path d="M377.791 244.147H278.344V229.947H377.791V244.147ZM279.425 243.055H376.71V231.039H279.425V243.055Z" fill="#3F3D56"/>
<path d="M362.117 273.096H294.017V257.802H362.117V273.096ZM295.098 272.003H361.036V258.895H295.098V272.003Z" fill="#3F3D56"/>
<path d="M375.088 197.175C375.088 198.299 374.745 199.396 374.105 200.316C373.465 201.236 372.56 201.934 371.513 202.315C370.466 202.695 369.328 202.74 368.255 202.443C367.182 202.146 366.225 201.521 365.517 200.654L365.511 200.649C364.995 200.015 364.626 199.273 364.432 198.475C364.239 197.678 364.226 196.847 364.394 196.044C364.562 195.241 364.907 194.487 365.403 193.837C365.9 193.187 366.535 192.659 367.261 192.291C367.987 191.924 368.786 191.726 369.598 191.714C370.41 191.701 371.215 191.874 371.952 192.219C372.689 192.563 373.34 193.072 373.855 193.706C374.371 194.34 374.739 195.083 374.932 195.881C374.932 195.881 374.932 195.882 374.932 195.883C374.932 195.883 374.933 195.884 374.933 195.884C374.934 195.885 374.934 195.885 374.935 195.886C374.936 195.886 374.936 195.886 374.937 195.886C375.037 196.308 375.088 196.741 375.088 197.175V197.175Z" fill="#DBADC6"/>
<path opacity="0.1" d="M375.088 197.175C375.088 198.299 374.745 199.397 374.105 200.316C373.465 201.236 372.56 201.934 371.513 202.315C370.466 202.695 369.328 202.74 368.255 202.443C367.182 202.146 366.225 201.521 365.517 200.654L365.511 200.649C365.411 200.227 365.361 199.794 365.36 199.36C365.36 198.235 365.703 197.138 366.343 196.219C366.983 195.299 367.889 194.601 368.936 194.22C369.983 193.84 371.12 193.795 372.193 194.092C373.267 194.389 374.223 195.014 374.932 195.881C374.932 195.881 374.932 195.882 374.932 195.883C374.932 195.883 374.933 195.884 374.933 195.884C374.934 195.885 374.934 195.885 374.935 195.886C374.936 195.886 374.936 195.886 374.937 195.886C375.037 196.308 375.088 196.741 375.088 197.175V197.175Z" fill="black"/>
<path d="M371.846 205.914C374.831 205.914 377.25 203.469 377.25 200.452C377.25 197.436 374.831 194.99 371.846 194.99C368.861 194.99 366.441 197.436 366.441 200.452C366.441 203.469 368.861 205.914 371.846 205.914Z" fill="#DBADC6"/>
<path d="M375.088 238.686C375.088 239.81 374.745 240.907 374.105 241.827C373.465 242.747 372.56 243.444 371.513 243.825C370.466 244.206 369.328 244.25 368.255 243.953C367.182 243.656 366.225 243.032 365.517 242.165L365.511 242.159C364.995 241.526 364.626 240.783 364.432 239.986C364.239 239.189 364.226 238.358 364.394 237.555C364.562 236.752 364.907 235.997 365.403 235.348C365.9 234.698 366.535 234.17 367.261 233.802C367.987 233.434 368.786 233.237 369.598 233.224C370.41 233.212 371.215 233.384 371.952 233.729C372.689 234.074 373.34 234.582 373.855 235.216C374.371 235.85 374.739 236.594 374.932 237.391C374.932 237.392 374.932 237.393 374.932 237.393C374.932 237.394 374.933 237.394 374.933 237.395C374.934 237.396 374.934 237.396 374.935 237.396C374.936 237.396 374.936 237.397 374.937 237.397C375.037 237.819 375.088 238.251 375.088 238.686V238.686Z" fill="#DBADC6"/>
<path opacity="0.1" d="M375.088 238.686C375.088 239.81 374.745 240.907 374.105 241.827C373.465 242.747 372.56 243.445 371.513 243.825C370.466 244.206 369.328 244.25 368.255 243.953C367.182 243.656 366.225 243.032 365.517 242.165L365.511 242.159C365.411 241.737 365.361 241.305 365.36 240.87C365.36 239.746 365.703 238.649 366.343 237.729C366.983 236.809 367.889 236.111 368.936 235.731C369.983 235.35 371.12 235.305 372.193 235.603C373.267 235.9 374.223 236.524 374.932 237.391C374.932 237.392 374.932 237.393 374.932 237.393C374.932 237.394 374.933 237.394 374.933 237.395C374.934 237.396 374.934 237.396 374.935 237.396C374.936 237.396 374.936 237.397 374.937 237.397C375.037 237.819 375.088 238.251 375.088 238.686V238.686Z" fill="black"/>
<path d="M371.846 247.425C374.831 247.425 377.25 244.979 377.25 241.963C377.25 238.946 374.831 236.501 371.846 236.501C368.861 236.501 366.441 238.946 366.441 241.963C366.441 244.979 368.861 247.425 371.846 247.425Z" fill="#DBADC6"/>
<path d="M281.046 26.2172H252.941V54.6191H281.046V26.2172Z" fill="#F0F0F0"/>
<path d="M362.658 46.9725C361.375 46.9725 360.121 46.588 359.054 45.8679C357.988 45.1477 357.156 44.124 356.666 42.9264C356.175 41.7287 356.046 40.4109 356.296 39.1395C356.547 37.8681 357.164 36.7002 358.071 35.7836C358.979 34.8669 360.134 34.2427 361.392 33.9898C362.65 33.7369 363.954 33.8667 365.14 34.3628C366.325 34.8589 367.338 35.6989 368.05 36.7768C368.763 37.8546 369.143 39.1218 369.143 40.4182C369.141 42.1559 368.457 43.8218 367.242 45.0506C366.026 46.2793 364.377 46.9705 362.658 46.9725V46.9725ZM362.658 34.9562C361.589 34.9562 360.544 35.2766 359.655 35.8767C358.766 36.4769 358.073 37.3299 357.664 38.328C357.255 39.326 357.148 40.4242 357.357 41.4837C357.565 42.5432 358.08 43.5165 358.836 44.2803C359.592 45.0442 360.555 45.5644 361.603 45.7751C362.652 45.9859 363.738 45.8777 364.726 45.4643C365.713 45.0509 366.558 44.3508 367.151 43.4526C367.745 42.5544 368.062 41.4984 368.062 40.4182C368.061 38.9701 367.491 37.5818 366.477 36.5578C365.464 35.5339 364.09 34.9579 362.658 34.9562V34.9562Z" fill="#3F3D56"/>
<path d="M219.973 138.186H205.92V123.985H219.973V138.186ZM207.001 137.094H218.892V125.078H207.001V137.094Z" fill="#3F3D56"/>
<path d="M434 244.147H419.948V229.947H434V244.147ZM421.029 243.055H432.919V231.039H421.029V243.055Z" fill="#3F3D56"/>
<path d="M156.739 148.928L159.15 150.241L167.356 154.71L180.603 161.923L188.323 147.448C189.05 146.088 189.504 144.596 189.66 143.058C189.816 141.521 189.671 139.967 189.232 138.486C188.793 137.005 188.069 135.626 187.102 134.428C186.135 133.231 184.944 132.237 183.597 131.505C180.718 129.934 177.42 129.327 174.177 129.771C170.935 130.216 167.916 131.689 165.555 133.979L165.551 133.983C164.39 135.11 163.409 136.414 162.646 137.847L156.739 148.928Z" fill="#2F2E41"/>
<path d="M192.895 296.547L191.277 314.538L185.207 315.356L181.161 294.912L192.895 296.547Z" fill="#FFB8B8"/>
<path d="M183.589 315.356C183.589 315.356 191.277 311.267 192.895 314.539C192.895 314.539 191.681 324.352 196.537 325.579C201.392 326.805 203.415 335.392 196.537 336.21C189.658 337.028 185.207 334.574 182.78 334.574C180.352 334.574 182.78 325.988 182.78 325.988L183.589 315.356Z" fill="#2F2E41"/>
<path d="M143.937 296.547L145.555 314.538L151.624 315.356L155.67 294.912L143.937 296.547Z" fill="#FFB8B8"/>
<path d="M153.243 315.356C153.243 315.356 145.555 311.267 143.937 314.539C143.937 314.539 145.15 324.352 140.295 325.579C135.44 326.805 133.417 335.392 140.295 336.21C147.174 337.028 151.624 334.574 154.052 334.574C156.48 334.574 154.052 325.988 154.052 325.988L153.243 315.356Z" fill="#2F2E41"/>
<path d="M177.115 152.207C182.925 152.207 187.635 147.448 187.635 141.576C187.635 135.705 182.925 130.945 177.115 130.945C171.305 130.945 166.595 135.705 166.595 141.576C166.595 147.448 171.305 152.207 177.115 152.207Z" fill="#FFB8B8"/>
<path d="M143.532 162.43L152.029 175.923L162.144 175.106L178.733 176.332C178.733 176.332 180.299 173.167 181.578 170.088C182.278 168.551 182.816 166.943 183.184 165.292C183.589 162.43 177.924 159.568 177.924 159.568C177.924 159.568 177.702 159.527 177.329 159.437C176.836 159.318 176.075 159.122 175.242 158.836C173.36 158.19 171.098 157.094 170.641 155.479C169.832 152.616 175.901 148.527 175.901 148.527L168.618 141.576C168.618 141.576 162.148 150.658 154.291 152.727C153.835 152.848 153.373 152.944 152.907 153.013C152.883 153.017 152.862 153.021 152.838 153.025C144.341 154.252 143.532 162.43 143.532 162.43Z" fill="#FFB8B8"/>
<path d="M147.983 158.75L143.532 162.43C143.532 162.43 139.891 180.012 141.104 184.919C142.318 189.826 140.7 194.324 140.7 195.141C140.7 195.959 137.058 226.626 137.058 226.626C137.058 226.626 129.775 242.982 137.463 241.346C145.151 239.711 142.318 223.355 142.318 223.355L151.624 194.732V170.608L147.983 158.75Z" fill="#FFB8B8"/>
<path d="M179.947 162.021L183.184 164.474L184.803 198.821L196.941 228.262C196.941 228.262 205.843 242.573 200.178 242.982C194.513 243.391 190.872 228.262 190.872 228.262L179.947 200.048L178.329 172.652L179.947 162.021Z" fill="#FFB8B8"/>
<path d="M159.717 164.474C159.717 164.474 167.809 170.199 180.756 168.154C180.756 168.154 184.398 175.514 182.375 179.603C180.352 183.692 184.803 193.506 185.612 194.732C186.421 195.959 195.727 221.311 198.964 248.706C202.201 276.102 211.103 294.912 203.415 297.365C195.727 299.818 179.947 302.681 178.329 300.227C176.71 297.774 174.283 236.849 174.283 236.849L169.832 260.156C169.832 260.156 175.901 299.818 171.45 300.636C167 301.454 139.081 299.001 139.89 294.094C140.7 289.187 148.792 263.427 148.792 263.427C148.792 263.427 148.387 211.906 156.48 202.093C156.48 202.093 159.717 196.777 155.266 189.826C150.815 182.874 151.22 171.834 151.22 171.834C151.22 171.834 154.457 171.834 159.717 164.474Z" fill="#2F2E41"/>
<path d="M152.907 153.013L159.717 168.154L161.335 167.337L154.291 152.727L152.907 153.013Z" fill="#2F2E41"/>
<path d="M175.242 158.836L180.352 170.199L181.578 170.088L181.161 168.154L177.33 159.437C176.836 159.318 176.075 159.122 175.242 158.836Z" fill="#2F2E41"/>
<path d="M159.15 150.241C159.539 151.506 160.289 152.626 161.306 153.463C162.322 154.299 163.56 154.813 164.865 154.942C166.169 155.07 167.483 154.807 168.64 154.184C169.797 153.562 170.746 152.608 171.37 151.443C166.251 144.68 170.641 140.431 178.956 137.217C179.582 136.043 179.849 134.706 179.721 133.378C179.594 132.05 179.078 130.79 178.24 129.759C175.948 129.463 173.62 129.688 171.425 130.418C169.23 131.148 167.225 132.365 165.555 133.979L165.551 133.983L159.644 145.056C159.223 145.843 158.963 146.707 158.878 147.598C158.793 148.488 158.886 149.387 159.15 150.241V150.241Z" fill="#2F2E41"/>
<path d="M170.844 145.256C171.626 145.256 172.26 144.158 172.26 142.803C172.26 141.448 171.626 140.349 170.844 140.349C170.061 140.349 169.427 141.448 169.427 142.803C169.427 144.158 170.061 145.256 170.844 145.256Z" fill="#FFB8B8"/>
<path d="M175.064 138.8L187.226 144.369L189.456 139.397C189.072 137.579 188.267 135.88 187.109 134.437L178.738 130.605L175.064 138.8Z" fill="#2F2E41"/>
<path d="M204.299 248.517C207.284 248.517 209.704 246.072 209.704 243.055C209.704 240.039 207.284 237.593 204.299 237.593C201.314 237.593 198.894 240.039 198.894 243.055C198.894 246.072 201.314 248.517 204.299 248.517Z" fill="#DBADC6"/>
<path d="M30.7834 280.986C32.7342 280.986 34.3156 279.388 34.3156 277.417C34.3156 275.445 32.7342 273.847 30.7834 273.847C28.8326 273.847 27.2512 275.445 27.2512 277.417C27.2512 279.388 28.8326 280.986 30.7834 280.986Z" fill="#FF6584"/>
<path d="M48.6292 296.021H47.5482V336.663H48.6292V296.021Z" fill="#3F3D56"/>
<path d="M48.0888 301.768C51.2298 301.768 53.7761 299.195 53.7761 296.021C53.7761 292.846 51.2298 290.273 48.0888 290.273C44.9478 290.273 42.4015 292.846 42.4015 296.021C42.4015 299.195 44.9478 301.768 48.0888 301.768Z" fill="#3F3D56"/>
<path d="M48.0887 321.07C48.0887 321.07 47.2763 303.41 30.6206 305.463Z" fill="#3F3D56"/>
</svg>
